<svg width="321" height="322" viewBox="0 0 321 322" fill="none" xmlns="http://www.w3.org/2000/svg">
<path d="M134.081 288.28C133.762 288.871 133.571 289.463 133.571 290.054V321.998H70.6147V282.693C70.6147 281.313 69.7871 280.064 68.514 279.604C67.8774 279.341 5.74875 255.285 0.0206588 178.318C-0.679587 166.092 16.6352 163.332 19.4996 175.228C23.8283 193.435 31.5948 216.505 43.6259 223.343C44.3261 223.738 45.09 223.869 45.8539 223.672C62.6593 219.465 96.2055 224.855 106.329 257.324C106.902 259.099 108.685 259.954 110.34 259.428C111.995 258.836 112.886 256.93 112.313 255.221C109.703 247.268 104.165 235.897 92.8343 227.221C74.0555 212.761 51.3928 215.916 45.7299 216.968C40.3827 213.287 35.0354 204.02 30.4521 190.546V126.593C30.6431 114.63 47.894 114.565 48.0851 126.593V193.503C48.0851 197.841 54.4508 197.775 54.4508 193.503V110.949C54.7055 98.986 71.9567 99.0521 72.1478 110.949V193.503C72.1478 197.841 78.5135 197.775 78.5135 193.503V126.593C78.7045 114.63 95.8919 114.565 96.1466 126.593V193.503C96.2102 197.841 102.512 197.775 102.512 193.503V160.245C102.703 150.714 116.389 150.714 116.517 160.245V220.188C116.517 221.372 117.154 222.489 118.172 223.08C143.062 236.817 146.563 268.957 134.086 288.282L134.081 288.28ZM318.367 170.824C313.402 164.777 303.089 167.537 301.498 175.227C297.169 193.434 289.403 216.505 277.372 223.342C276.672 223.737 275.908 223.868 275.144 223.671C258.147 219.464 224.792 224.92 214.668 257.389C213.331 261.464 207.348 259.295 208.684 255.22C218.869 222.093 252.733 212.035 275.271 216.966C280.618 213.286 285.965 204.018 290.549 190.544V126.592C290.294 114.629 273.17 114.563 272.916 126.592V193.501C272.852 197.773 266.55 197.773 266.55 193.501V110.947C266.295 99.0506 249.044 98.9846 248.853 110.947V193.501C248.853 197.773 242.487 197.773 242.487 193.501V126.592C242.296 114.629 225.109 114.563 224.854 126.592V193.501C224.854 197.773 218.489 197.773 218.489 193.501V160.243C218.298 150.778 204.611 150.713 204.484 160.243V220.187C204.484 221.37 203.847 222.487 202.829 223.079C176.284 238.985 175.202 268.232 187.424 290.056V322H250.381V282.695C250.381 281.314 251.208 280.065 252.481 279.605C253.118 279.342 315.247 255.286 320.975 178.319C321.166 175.559 320.277 172.861 318.367 170.824Z" fill="#46A100"/>
<path d="M251.83 37.3716C251.451 38.3475 250.503 38.9794 249.45 38.9513C234.538 38.5792 229.665 44.4135 224.526 50.5988C219.513 56.6297 214.374 62.815 200.958 62.815C195.397 62.815 188.419 61.7549 179.431 59.1783C178.778 58.9887 178.238 58.5464 177.915 57.9497C177.599 57.3529 177.536 56.6508 177.746 56.012C180.035 49.0194 183.419 43.5431 187.842 39.6888C182.233 42.6867 176.925 47.6433 171.856 54.5727V54.5797C171.245 57.7461 170.592 61.6637 170.052 65.7709C169.827 67.4418 169.623 69.1479 169.441 70.8469C170.585 70.6924 171.744 70.6152 172.923 70.6152C187.758 70.6152 199.82 82.6768 199.82 97.5048C199.82 97.561 199.82 97.6172 199.813 97.6733C199.806 97.7786 199.806 97.891 199.806 97.9963C199.806 99.3723 200.915 100.489 202.292 100.489H208.435C218.489 100.489 226.703 108.541 226.956 118.532C219.879 119.922 211.946 121.052 203.311 121.902C199.948 118.553 195.314 116.482 190.21 116.482H187.914C187.008 105.663 179.18 96.7815 168.88 94.2958C167.28 93.9097 165.616 93.6709 163.91 93.6148C163.615 93.6007 163.32 93.5937 163.018 93.5937C154.551 93.5937 146.737 97.8483 142.138 104.841C139.709 103.977 137.161 103.535 134.542 103.535C124.291 103.535 115.578 110.345 112.819 119.774C105.476 118.609 98.9883 117.212 93.4621 115.618C96.0527 111.265 100.792 108.485 105.945 108.485H109.455C110.775 108.485 111.871 107.446 111.941 106.126C112.601 93.4813 123.048 83.5676 135.719 83.5676C139.286 83.5676 142.726 84.3399 145.935 85.8633C147.135 86.432 148.567 85.9616 149.192 84.7892C152.239 79.1093 157.14 74.8196 162.918 72.5169C162.742 70.7757 162.539 69.0837 162.314 67.4199C160.278 52.1427 156.557 40.4817 152.752 35.061C152.668 34.9417 152.59 34.8153 152.534 34.6819V34.6749C145.977 28.8476 139.623 25.0704 133.402 23.3223C138.548 26.1306 143.041 30.7502 146.783 37.0829C147.127 37.6586 147.219 38.3607 147.036 39.0136C146.854 39.6665 146.418 40.2141 145.821 40.5371C133.507 47.2138 124.85 49.601 118.272 49.608C109.868 49.608 104.855 45.7184 99.9411 41.9061C93.5872 36.9775 87.5915 32.3228 73.0872 35.9034C72.0692 36.1562 71.002 35.742 70.4193 34.8714C69.8365 34.0008 69.8646 32.8634 70.4825 32.014C78.1772 21.5109 86.9111 13.0577 95.7223 7.54715C105.088 1.69886 114.594 -0.828705 123.23 0.238541C133.024 1.44612 146.75 7.91919 156.551 31.8803C156.551 31.8803 156.558 31.8803 156.558 31.8873C156.649 31.9856 156.741 32.0839 156.818 32.2032C160.223 37.0405 163.677 46.3641 166.015 58.9455C166.359 56.8252 166.71 54.8455 167.054 53.1112C167.061 53.0902 167.061 53.0691 167.068 53.0481C171.456 27.4992 183.469 18.2107 192.779 14.918C200.979 12.0184 210.815 12.4327 221.22 16.1256C231.014 19.6009 241.37 25.9758 251.149 34.5696C251.942 35.2858 252.209 36.3957 251.83 37.3716ZM200.655 126.332C200.535 126.191 200.416 126.058 200.297 125.924C197.804 123.179 194.21 121.459 190.222 121.459H185.525C184.149 121.459 183.039 120.35 183.039 118.974V118.588C183.039 108.597 175.681 100.298 166.105 98.8172C166.063 98.8102 166.021 98.8031 165.986 98.7961C165.024 98.6487 164.034 98.5785 163.03 98.5785C155.644 98.5785 148.876 102.629 145.38 109.145C144.755 110.317 143.323 110.781 142.122 110.219C139.742 109.089 137.193 108.527 134.554 108.527C125.946 108.527 118.729 114.677 117.198 122.912C117.184 122.969 117.177 123.025 117.163 123.081C117.156 123.102 117.156 123.116 117.156 123.13C117.037 123.818 116.96 124.52 116.917 125.236C116.847 126.556 115.759 127.595 114.432 127.595H111.75C108.268 127.595 105.045 129.344 103.101 132.117C116.405 135.817 136.583 138 157.982 138C174.881 138 191.049 136.659 203.807 134.209C203.624 131.218 202.473 128.494 200.661 126.331L200.655 126.332Z" fill="#46A100"/>
</svg>
