<svg width="321" height="319" viewBox="0 0 321 319" fill="none" xmlns="http://www.w3.org/2000/svg">
<path d="M134.081 285.28C133.762 285.871 133.571 286.463 133.571 287.054V318.998H70.6147V279.693C70.6147 278.313 69.7871 277.064 68.514 276.604C67.8774 276.341 5.74875 252.285 0.0206588 175.318C-0.679587 163.092 16.6352 160.332 19.4996 172.228C23.8283 190.435 31.5948 213.505 43.6259 220.343C44.3261 220.738 45.09 220.869 45.8539 220.672C62.6593 216.465 96.2055 221.855 106.329 254.324C106.902 256.099 108.685 256.954 110.34 256.428C111.995 255.836 112.886 253.93 112.313 252.221C109.703 244.268 104.165 232.897 92.8343 224.221C74.0555 209.761 51.3928 212.916 45.7299 213.968C40.3827 210.287 35.0354 201.02 30.4521 187.546V123.593C30.6431 111.63 47.894 111.565 48.0851 123.593V190.503C48.0851 194.841 54.4508 194.775 54.4508 190.503V107.949C54.7055 95.986 71.9567 96.0521 72.1478 107.949V190.503C72.1478 194.841 78.5135 194.775 78.5135 190.503V123.593C78.7045 111.63 95.8919 111.565 96.1466 123.593V190.503C96.2102 194.841 102.512 194.775 102.512 190.503V157.245C102.703 147.714 116.389 147.714 116.517 157.245V217.188C116.517 218.372 117.154 219.489 118.172 220.08C143.062 233.817 146.563 265.957 134.086 285.282L134.081 285.28ZM318.367 167.824C313.402 161.777 303.089 164.537 301.498 172.227C297.169 190.434 289.403 213.505 277.372 220.342C276.672 220.737 275.908 220.868 275.144 220.671C258.147 216.464 224.792 221.92 214.668 254.389C213.331 258.464 207.348 256.295 208.684 252.22C218.869 219.093 252.733 209.035 275.271 213.966C280.618 210.286 285.965 201.018 290.549 187.544V123.592C290.294 111.629 273.17 111.563 272.916 123.592V190.501C272.852 194.773 266.55 194.773 266.55 190.501V107.947C266.295 96.0506 249.044 95.9846 248.853 107.947V190.501C248.853 194.773 242.487 194.773 242.487 190.501V123.592C242.296 111.629 225.109 111.563 224.854 123.592V190.501C224.854 194.773 218.489 194.773 218.489 190.501V157.243C218.298 147.778 204.611 147.713 204.484 157.243V217.187C204.484 218.37 203.847 219.487 202.829 220.079C176.284 235.985 175.202 265.232 187.424 287.056V319H250.381V279.695C250.381 278.314 251.208 277.065 252.481 276.605C253.118 276.342 315.247 252.286 320.975 175.319C321.166 172.559 320.277 169.861 318.367 167.824Z" fill="#F6C500"/>
<path d="M226.82 68.1765H218.667C217.718 68.1765 216.952 68.9443 216.952 69.8953C216.952 70.8464 217.718 71.6141 218.667 71.6141H226.82C227.769 71.6141 228.536 70.8464 228.536 69.8953C228.536 68.9443 227.769 68.1765 226.82 68.1765Z" fill="#F6C500"/>
<path d="M223.407 91.0081L215.746 88.2124C214.854 87.8858 213.871 88.3499 213.545 89.2379C213.219 90.1317 213.682 91.117 214.568 91.4379L222.229 94.2337C222.424 94.3024 222.624 94.3368 222.818 94.3368C223.521 94.3368 224.179 93.9014 224.431 93.2081C224.756 92.3144 224.293 91.329 223.407 91.0081Z" fill="#F6C500"/>
<path d="M206.164 106.047C205.438 105.44 204.357 105.532 203.746 106.259C203.134 106.987 203.231 108.07 203.957 108.683L210.2 113.931C210.921 114.538 212.007 114.446 212.619 113.719C213.23 112.991 213.133 111.908 212.407 111.295L206.164 106.047Z" fill="#F6C500"/>
<path d="M215.164 51.6765C215.358 51.6765 215.558 51.6422 215.753 51.5734L223.414 48.7776C224.3 48.4511 224.763 47.4657 224.437 46.5776C224.112 45.6839 223.134 45.2313 222.236 45.5521L214.575 48.3479C213.689 48.6744 213.226 49.6599 213.552 50.5479C213.809 51.2468 214.461 51.6765 215.164 51.6765Z" fill="#F6C500"/>
<path d="M210.201 25.8557L203.957 31.1036C203.231 31.7166 203.14 32.7993 203.746 33.527C204.083 33.9337 204.569 34.14 205.061 34.14C205.45 34.14 205.844 34.0082 206.164 33.7389L212.408 28.4911C213.134 27.878 213.225 26.7953 212.619 26.0677C212.007 25.3401 210.927 25.2484 210.201 25.8557Z" fill="#F6C500"/>
<path d="M104.048 69.8955C104.048 68.9444 103.281 68.1767 102.332 68.1767H94.1794C93.2303 68.1767 92.4642 68.9444 92.4642 69.8955C92.4642 70.8466 93.2303 71.6143 94.1794 71.6143H102.332C103.281 71.6143 104.048 70.8466 104.048 69.8955Z" fill="#F6C500"/>
<path d="M105.254 88.2171L97.5923 91.0128C96.7061 91.3394 96.243 92.3248 96.5689 93.2128C96.8262 93.9118 97.478 94.3415 98.1813 94.3415C98.3756 94.3415 98.5757 94.3071 98.7701 94.2384L106.431 91.4426C107.318 91.116 107.781 90.1306 107.455 89.2426C107.129 88.3546 106.151 87.8905 105.254 88.2171Z" fill="#F6C500"/>
<path d="M114.836 106.047L108.593 111.295C107.867 111.908 107.775 112.991 108.381 113.719C108.719 114.125 109.204 114.332 109.696 114.332C110.085 114.332 110.479 114.2 110.8 113.931L117.043 108.683C117.769 108.07 117.86 106.987 117.254 106.259C116.643 105.532 115.562 105.44 114.836 106.047Z" fill="#F6C500"/>
<path d="M106.426 48.3428L98.7647 45.547C97.8671 45.2262 96.8895 45.6845 96.5635 46.5726C96.2376 47.4663 96.7008 48.4517 97.5869 48.7726L105.248 51.5683C105.443 51.6371 105.643 51.6714 105.837 51.6714C106.54 51.6714 107.198 51.236 107.449 50.5428C107.775 49.649 107.312 48.6637 106.426 48.3428Z" fill="#F6C500"/>
<path d="M114.836 33.7392C115.156 34.0085 115.551 34.1403 115.939 34.1403C116.431 34.1403 116.911 33.9283 117.254 33.5272C117.866 32.7996 117.769 31.7168 117.043 31.1039L110.8 25.856C110.074 25.2487 108.993 25.3404 108.381 26.068C107.77 26.7956 107.867 27.8784 108.593 28.4913L114.836 33.7392Z" fill="#F6C500"/>
<path d="M207.954 67.3757C207.954 41.1532 186.668 19.8235 160.5 19.8235C134.332 19.8235 113.046 41.1532 113.046 67.3757C113.046 86.5392 124.309 103.567 141.85 111.072V116.526H140.953C137.517 116.526 134.721 119.328 134.721 122.771C134.721 126.214 137.517 129.016 140.953 129.016H141.85V134.63H140.953C137.517 134.63 134.721 137.432 134.721 140.875C134.721 144.319 137.517 147.12 140.953 147.12H141.85V149.87C141.85 153.342 144.669 156.172 148.139 156.172H172.868C176.338 156.172 179.157 153.342 179.157 149.87V147.12H180.054C183.49 147.12 186.286 144.318 186.286 140.875C186.286 137.432 183.49 134.63 180.054 134.63H179.157V129.016H180.054C183.49 129.016 186.286 126.214 186.286 122.771C186.286 119.328 183.49 116.526 180.054 116.526H179.157V111.072C196.691 103.561 207.961 86.5392 207.961 67.3757H207.954ZM171.181 98.6333C170.26 98.7651 169.374 98.1062 169.248 97.1609C169.123 96.2214 169.78 95.3562 170.718 95.2302C176.487 94.4511 180.66 92.1593 183.124 88.4183C186.692 83.01 185.909 75.8314 185.36 72.8174C178.019 73.797 172.627 76.4726 169.323 80.7981C166.95 83.9033 166.058 87.3752 165.767 90.0964C167.31 88.4922 169.22 87.0198 171.621 85.9198C172.479 85.5245 173.502 85.9026 173.891 86.7677C174.285 87.6328 173.908 88.6527 173.045 89.048C164.543 92.9437 163.079 102.861 163.068 102.958C163.068 102.976 163.057 102.987 163.051 103.004C163.674 108.802 163.268 113.844 162.937 116.531H159.483C160.312 110.458 162.308 86.0521 142.697 77.343C141.828 76.9592 141.439 75.9451 141.822 75.0742C142.205 74.2033 143.223 73.8138 144.086 74.1976C148.832 76.306 152.439 79.2164 155.178 82.5393C154.84 79.881 153.926 76.6039 151.673 73.6534C148.374 69.3336 142.983 66.6524 135.636 65.6726C135.087 68.6862 134.304 75.8648 137.871 81.2736C140.336 85.0148 144.515 87.3064 150.278 88.0855C151.216 88.2116 151.873 89.0767 151.747 90.0162C151.627 90.9615 150.735 91.6205 149.815 91.4886C143.017 90.5662 138.026 87.7589 134.99 83.147C129.524 74.8339 132.497 63.7884 132.629 63.3235C132.851 62.5214 133.635 62.0001 134.447 62.0745C143.572 62.9683 150.289 66.1767 154.418 71.6021C159.386 78.1391 158.9 85.736 158.654 87.8044C160.044 90.4341 161.044 93.1784 161.753 95.9054C161.925 95.5502 162.113 95.195 162.308 94.8283C162.062 92.6283 161.668 85.1747 166.556 78.7346C170.678 73.3091 177.396 70.1065 186.527 69.207C187.356 69.121 188.122 69.6538 188.345 70.4559C188.477 70.92 191.45 81.9716 185.984 90.2794C182.948 94.897 177.962 97.7044 171.159 98.6211L171.181 98.6333Z" fill="#F6C500"/>
</svg>
